<svg width="28" height="24" viewBox="0 0 28 24" fill="none" xmlns="http://www.w3.org/2000/svg">
<path d="M1.95844 10.5C1.13001 10.5 0.458435 11.1716 0.458435 12C0.458435 12.8284 1.13001 13.5 1.95844 13.5V10.5ZM27.1023 13.0607C27.6881 12.4749 27.6881 11.5251 27.1023 10.9393L17.5563 1.3934C16.9706 0.807612 16.0208 0.807612 15.435 1.3934C14.8492 1.97918 14.8492 2.92893 15.435 3.51472L23.9203 12L15.435 20.4853C14.8492 21.0711 14.8492 22.0208 15.435 22.6066C16.0208 23.1924 16.9706 23.1924 17.5563 22.6066L27.1023 13.0607ZM1.95844 13.5L26.0416 13.5V10.5L1.95844 10.5V13.5Z" fill="black"/>
</svg>
